# xmcd CD database file
#
# Track frame offsets:
#	150
#	18712
#	37653
#
# Disc length: 807 seconds
#
# Revision: 2
# Processed by: cddbd v1.5.1PL0 Copyright (c) Steve Scherf et al.
# Submitted via: CDex 1.51
#
DISCID=18032503
DTITLE=MAY'S - Party Night Together!!!
DYEAR=2003
DGENRE=JPop
TTITLE0=Party Night Together!!!
TTITLE1=輝夜姫
TTITLE2=あの夏のラブ・レター
EXTD=YEAR: 2003
EXTT0=
EXTT1=
EXTT2=
PLAYORDER=
